<svg width="207" height="85" viewBox="0 0 207 85" fill="none" xmlns="http://www.w3.org/2000/svg">
<path opacity="0.985" fill-rule="evenodd" clip-rule="evenodd" d="M21.9506 0.524539C22.1527 0.327951 22.4902 0.472415 22.4898 0.754363L22.4127 59.5139C22.4116 60.3229 22.1065 61.0981 21.5525 61.6878C16.7595 66.7899 8.30316 75.7215 6.54609 77.5769C6.33525 77.7995 6.04718 77.9202 5.74056 77.9202H0.700764C0.427044 77.9202 0.280423 77.5982 0.460164 77.3917L7.66665 69.115C7.91735 68.8271 8.05646 68.4588 8.05872 68.077L8.21111 42.3226C8.21344 41.9292 8.36001 41.5518 8.6241 41.2602C9.69534 40.0775 12.6201 36.84 14.3844 34.8038C14.6252 34.526 14.7593 34.1791 14.7674 33.8115C14.947 25.6706 15.0495 11.1062 15.0699 8.00711C15.0724 7.61986 15.2125 7.25939 15.4777 6.97718C17.0325 5.32257 20.5924 1.84571 21.9506 0.524539Z" fill="white"/>
<path opacity="0.988" fill-rule="evenodd" clip-rule="evenodd" d="M26.6649 77.5225C26.3651 77.8308 25.96 77.9999 25.53 77.9999C20.6679 77.9999 12.5689 77.9999 10.0811 77.9999C9.7997 77.9999 9.65694 77.6621 9.85223 77.4595L23.8163 62.9731C24.3802 62.3881 24.6994 61.6326 24.7086 60.8201C24.7837 54.2378 25.1199 23.1393 24.9635 7.27449C24.9626 7.18577 25.0344 7.11804 25.1231 7.11804C25.255 7.11804 25.3705 7.11804 25.512 7.11804C25.556 7.11804 25.5981 7.13623 25.6282 7.16829C27.5069 9.16657 29.3855 11.1649 31.2642 13.1631C31.5404 13.4569 31.6951 13.8396 31.6972 14.2428C31.7496 24.4465 31.8487 41.5217 31.8487 41.5217C31.8487 50.6851 43.1219 54.2111 46.5804 55.7595C46.8663 55.8876 46.9319 56.2443 46.7169 56.4722C44.3902 58.9389 32.9172 71.0914 26.6649 77.5225Z" fill="white"/>
<path d="M55.075 53V35.5H58.325V53H55.075ZM62.4725 35.5H65.7225V50.25H74.7225V53H62.4725V35.5ZM77.0965 53V35.5H80.3465V53H77.0965ZM82.4439 53L89.5689 35.5H92.8189L99.9439 53H96.5689L95.0439 49.125H87.3439L85.8189 53H82.4439ZM89.5939 43.45L88.4439 46.375H93.9439L92.7939 43.45C92.1273 41.75 91.6106 40.225 91.2439 38.875H91.1439C90.7439 40.3583 90.2273 41.8833 89.5939 43.45ZM55.075 78V60.5H64.075C65.725 60.5 67.0917 60.9667 68.175 61.9C69.275 62.8167 69.825 64.1 69.825 65.75C69.825 67.3667 69.2833 68.65 68.2 69.6C67.1333 70.5333 65.7583 71 64.075 71H58.325V78H55.075ZM58.325 68.25H64.075C64.825 68.25 65.425 68.025 65.875 67.575C66.3417 67.1083 66.575 66.5 66.575 65.75C66.575 64.9833 66.35 64.375 65.9 63.925C65.45 63.475 64.8417 63.25 64.075 63.25H58.325V68.25ZM80.1822 78.375C77.5989 78.375 75.4906 77.5167 73.8572 75.8C72.2406 74.0833 71.4322 71.9 71.4322 69.25C71.4322 66.6333 72.2239 64.4583 73.8072 62.725C75.4072 60.9917 77.5322 60.125 80.1822 60.125C82.7822 60.125 84.8906 60.9833 86.5072 62.7C88.1239 64.4 88.9322 66.5833 88.9322 69.25C88.9322 71.8667 88.1322 74.0417 86.5322 75.775C84.9322 77.5083 82.8156 78.375 80.1822 78.375ZM80.1822 62.875C78.4989 62.875 77.1572 63.5 76.1572 64.75C75.1739 66 74.6822 67.5 74.6822 69.25C74.6822 70.9833 75.1739 72.4833 76.1572 73.75C77.1406 75 78.4822 75.625 80.1822 75.625C81.8656 75.625 83.1989 75.0083 84.1822 73.775C85.1822 72.525 85.6822 71.0167 85.6822 69.25C85.6822 67.5 85.1906 66 84.2072 64.75C83.2406 63.5 81.8989 62.875 80.1822 62.875ZM92.0379 60.5H95.2879V75.25H104.288V78H92.0379V60.5ZM106.662 78V60.5H109.912V78H106.662ZM112.009 78L119.134 60.5H122.384L129.509 78H126.134L124.609 74.125H116.909L115.384 78H112.009ZM119.159 68.45L118.009 71.375H123.509L122.359 68.45C121.693 66.75 121.176 65.225 120.809 63.875H120.709C120.309 65.3583 119.793 66.8833 119.159 68.45ZM131.613 78V60.5H134.863V67.875L142.113 60.5H146.238L137.738 69L146.738 78H142.363L134.863 70.25V78H131.613ZM148.581 60.5H152.206L155.606 67.15C156.506 68.8833 157.248 70.4583 157.831 71.875C158.064 71.3083 158.239 70.9 158.356 70.65L158.881 69.525C159.214 68.8083 159.606 68.0167 160.056 67.15L163.456 60.5H167.081V78H163.831V70.625C163.831 70.025 163.839 69.5833 163.856 69.3C163.856 68.7667 163.864 68.375 163.881 68.125C163.898 67.7417 163.923 67.3417 163.956 66.925C163.956 66.8083 163.964 66.6083 163.981 66.325C164.014 66.025 164.039 65.7917 164.056 65.625H163.956C163.723 66.1917 163.556 66.6 163.456 66.85C163.356 67.1167 163.189 67.5 162.956 68C162.889 68.1333 162.798 68.3333 162.681 68.6C162.564 68.85 162.481 69.0333 162.431 69.15C162.314 69.4 162.106 69.8083 161.806 70.375L157.831 78L153.856 70.375C153.556 69.8083 153.348 69.4 153.231 69.15C153.181 69.0333 153.098 68.85 152.981 68.6C152.864 68.3333 152.773 68.1333 152.706 68C152.639 67.85 152.539 67.6333 152.406 67.35C152.289 67.0667 152.223 66.9 152.206 66.85C152.139 66.7 152.039 66.475 151.906 66.175C151.789 65.8583 151.723 65.675 151.706 65.625H151.606C151.623 65.7917 151.639 66.025 151.656 66.325C151.689 66.6083 151.706 66.8083 151.706 66.925C151.739 67.3417 151.764 67.7417 151.781 68.125C151.798 68.2583 151.806 68.4583 151.806 68.725C151.823 68.975 151.831 69.1667 151.831 69.3V78H148.581V60.5ZM169.187 78L176.312 60.5H179.562L186.687 78H183.312L181.787 74.125H174.087L172.562 78H169.187ZM176.337 68.45L175.187 71.375H180.687L179.537 68.45C178.87 66.75 178.354 65.225 177.987 63.875H177.887C177.487 65.3583 176.97 66.8833 176.337 68.45ZM188.791 60.5H192.291L197.541 68.125C198.991 70.2083 200.099 71.9583 200.866 73.375H200.966C200.949 73.1083 200.924 72.725 200.891 72.225C200.857 71.725 200.841 71.3333 200.841 71.05C200.824 70.7667 200.816 70.3 200.816 69.65C200.799 69.3167 200.791 68.725 200.791 67.875V60.5H204.041V78H200.541L195.291 70.375C194.341 69.0083 193.632 67.925 193.166 67.125C193.099 67.0083 192.982 66.825 192.816 66.575C192.666 66.325 192.557 66.1417 192.491 66.025C192.424 65.9083 192.332 65.75 192.216 65.55C192.099 65.35 192.016 65.2083 191.966 65.125H191.866C191.882 65.2583 191.899 65.4583 191.916 65.725C191.949 65.975 191.966 66.1583 191.966 66.275C191.982 66.4083 191.991 66.6083 191.991 66.875C192.007 67.125 192.016 67.3167 192.016 67.45C192.016 68.0333 192.024 68.4917 192.041 68.825V78H188.791V60.5Z" fill="white"/>
</svg>
