<svg width="181" height="85" viewBox="0 0 181 85" fill="none" xmlns="http://www.w3.org/2000/svg">
<path opacity="0.985" fill-rule="evenodd" clip-rule="evenodd" d="M21.9506 0.524539C22.1527 0.327951 22.4902 0.472415 22.4898 0.754363L22.4127 59.5139C22.4116 60.3229 22.1065 61.0981 21.5525 61.6878C16.7595 66.7899 8.30316 75.7215 6.54609 77.5769C6.33525 77.7995 6.04718 77.9202 5.74056 77.9202H0.700764C0.427044 77.9202 0.280423 77.5982 0.460164 77.3917L7.66665 69.115C7.91735 68.8271 8.05646 68.4588 8.05872 68.077L8.21111 42.3226C8.21344 41.9292 8.36001 41.5518 8.6241 41.2602C9.69534 40.0775 12.6201 36.84 14.3844 34.8038C14.6252 34.526 14.7593 34.1791 14.7674 33.8115C14.947 25.6706 15.0495 11.1062 15.0699 8.00711C15.0724 7.61986 15.2125 7.25939 15.4777 6.97718C17.0325 5.32257 20.5924 1.84571 21.9506 0.524539Z" fill="white"/>
<path opacity="0.988" fill-rule="evenodd" clip-rule="evenodd" d="M26.6649 77.5226C26.3651 77.8309 25.96 78 25.53 78C20.6679 78 12.5689 78 10.0811 78C9.7997 78 9.65694 77.6622 9.85223 77.4596L23.8163 62.9732C24.3802 62.3882 24.6994 61.6327 24.7086 60.8202C24.7837 54.2379 25.1199 23.1394 24.9635 7.27455C24.9626 7.18583 25.0344 7.1181 25.1231 7.11811C25.255 7.11811 25.3705 7.1181 25.512 7.1181C25.556 7.1181 25.5981 7.13629 25.6282 7.16835C27.5069 9.16664 29.3855 11.1649 31.2642 13.1632C31.5404 13.457 31.6951 13.8396 31.6972 14.2428C31.7496 24.4466 31.8487 41.5218 31.8487 41.5218C31.8487 50.6851 43.1219 54.2111 46.5804 55.7596C46.8663 55.8876 46.9319 56.2444 46.7169 56.4723C44.3902 58.9389 32.9172 71.0915 26.6649 77.5226Z" fill="white"/>
<path d="M55.075 53V35.5H58.325V53H55.075ZM62.0725 35.5H65.1725V53H62.0725V35.5ZM68.5178 40H71.6178V53H68.5178V40ZM68.5178 35.5H71.6178V38.25H68.5178V35.5ZM74.0881 49.125C74.0881 47.7917 74.5464 46.8083 75.4631 46.175C76.3964 45.525 77.5798 45.1333 79.0131 45L83.2131 44.625V44.375C83.2131 43.5083 82.9798 42.9 82.5131 42.55C82.0631 42.1833 81.3964 42 80.5131 42C78.9964 42 78.1298 42.5 77.9131 43.5H74.7131C74.9464 42.15 75.5964 41.1667 76.6631 40.55C77.7464 39.9333 79.0298 39.625 80.5131 39.625C82.2298 39.625 83.6214 40 84.6881 40.75C85.7714 41.5 86.3131 42.7083 86.3131 44.375V53H83.2131V51.5C82.3464 52.75 80.9048 53.375 78.8881 53.375C77.5048 53.375 76.3548 53.0167 75.4381 52.3C74.5381 51.5667 74.0881 50.5083 74.0881 49.125ZM77.1881 49.125C77.1881 49.7417 77.3964 50.2083 77.8131 50.525C78.2298 50.8417 78.7548 51 79.3881 51C80.5048 51 81.4214 50.675 82.1381 50.025C82.8548 49.375 83.2131 48.4917 83.2131 47.375V46.875L79.1381 47.25C78.5548 47.3 78.0798 47.4833 77.7131 47.8C77.3631 48.1167 77.1881 48.5583 77.1881 49.125ZM55.075 78V60.5H64.075C65.725 60.5 67.0917 60.9667 68.175 61.9C69.275 62.8167 69.825 64.1 69.825 65.75C69.825 67.3667 69.2833 68.65 68.2 69.6C67.1333 70.5333 65.7583 71 64.075 71H58.325V78H55.075ZM58.325 68.25H64.075C64.825 68.25 65.425 68.025 65.875 67.575C66.3417 67.1083 66.575 66.5 66.575 65.75C66.575 64.9833 66.35 64.375 65.9 63.925C65.45 63.475 64.8417 63.25 64.075 63.25H58.325V68.25ZM77.7898 78.375C75.8232 78.375 74.1982 77.7333 72.9148 76.45C71.6315 75.15 70.9898 73.5 70.9898 71.5C70.9898 69.5167 71.6232 67.875 72.8898 66.575C74.1565 65.275 75.7898 64.625 77.7898 64.625C79.7898 64.625 81.4232 65.2667 82.6898 66.55C83.9565 67.8167 84.5898 69.4667 84.5898 71.5C84.5898 73.5 83.9648 75.15 82.7148 76.45C81.4648 77.7333 79.8232 78.375 77.7898 78.375ZM77.7898 67.125C76.6065 67.125 75.6898 67.55 75.0398 68.4C74.4065 69.2333 74.0898 70.2667 74.0898 71.5C74.0898 72.7 74.4148 73.7333 75.0648 74.6C75.7148 75.45 76.6232 75.875 77.7898 75.875C78.9565 75.875 79.8648 75.45 80.5148 74.6C81.1648 73.75 81.4898 72.7167 81.4898 71.5C81.4898 70.2833 81.1732 69.25 80.5398 68.4C79.9065 67.55 78.9898 67.125 77.7898 67.125ZM87.1701 60.5H90.2701V78H87.1701V60.5ZM93.6154 65H96.7154V78H93.6154V65ZM93.6154 60.5H96.7154V63.25H93.6154V60.5ZM99.1857 74.125C99.1857 72.7917 99.6441 71.8083 100.561 71.175C101.494 70.525 102.677 70.1333 104.111 70L108.311 69.625V69.375C108.311 68.5083 108.077 67.9 107.611 67.55C107.161 67.1833 106.494 67 105.611 67C104.094 67 103.227 67.5 103.011 68.5H99.8107C100.044 67.15 100.694 66.1667 101.761 65.55C102.844 64.9333 104.127 64.625 105.611 64.625C107.327 64.625 108.719 65 109.786 65.75C110.869 66.5 111.411 67.7083 111.411 69.375V78H108.311V76.5C107.444 77.75 106.002 78.375 103.986 78.375C102.602 78.375 101.452 78.0167 100.536 77.3C99.6357 76.5667 99.1857 75.5083 99.1857 74.125ZM102.286 74.125C102.286 74.7417 102.494 75.2083 102.911 75.525C103.327 75.8417 103.852 76 104.486 76C105.602 76 106.519 75.675 107.236 75.025C107.952 74.375 108.311 73.4917 108.311 72.375V71.875L104.236 72.25C103.652 72.3 103.177 72.4833 102.811 72.8C102.461 73.1167 102.286 73.5583 102.286 74.125ZM117.736 78H114.636V60.5H117.736V70.15L122.761 65H126.736L120.486 71.25L127.236 78H123.011L117.736 72.475V78ZM128.576 78V65H131.676V66.5C132.426 65.25 133.66 64.625 135.376 64.625C137.41 64.625 138.826 65.375 139.626 66.875C140.426 65.375 141.885 64.625 144.001 64.625C145.535 64.625 146.735 65.0667 147.601 65.95C148.485 66.8333 148.926 68.0583 148.926 69.625V78H145.826V70.125C145.826 69.1583 145.626 68.4417 145.226 67.975C144.843 67.4917 144.185 67.25 143.251 67.25C142.301 67.25 141.568 67.55 141.051 68.15C140.551 68.7333 140.301 69.5167 140.301 70.5V78H137.201V70.125C137.201 69.1583 137.001 68.4417 136.601 67.975C136.218 67.4917 135.56 67.25 134.626 67.25C133.676 67.25 132.943 67.55 132.426 68.15C131.926 68.7333 131.676 69.5167 131.676 70.5V78H128.576ZM151.285 74.125C151.285 72.7917 151.744 71.8083 152.66 71.175C153.594 70.525 154.777 70.1333 156.21 70L160.41 69.625V69.375C160.41 68.5083 160.177 67.9 159.71 67.55C159.26 67.1833 158.594 67 157.71 67C156.194 67 155.327 67.5 155.11 68.5H151.91C152.144 67.15 152.794 66.1667 153.86 65.55C154.944 64.9333 156.227 64.625 157.71 64.625C159.427 64.625 160.819 65 161.885 65.75C162.969 66.5 163.51 67.7083 163.51 69.375V78H160.41V76.5C159.544 77.75 158.102 78.375 156.085 78.375C154.702 78.375 153.552 78.0167 152.635 77.3C151.735 76.5667 151.285 75.5083 151.285 74.125ZM154.385 74.125C154.385 74.7417 154.594 75.2083 155.01 75.525C155.427 75.8417 155.952 76 156.585 76C157.702 76 158.619 75.675 159.335 75.025C160.052 74.375 160.41 73.4917 160.41 72.375V71.875L156.335 72.25C155.752 72.3 155.277 72.4833 154.91 72.8C154.56 73.1167 154.385 73.5583 154.385 74.125ZM166.736 65H169.836V66.625C170.736 65.2917 172.094 64.625 173.911 64.625C175.544 64.625 176.794 65.0917 177.661 66.025C178.527 66.9583 178.961 68.2417 178.961 69.875V78H175.861V70.125C175.861 69.1583 175.644 68.4417 175.211 67.975C174.794 67.4917 174.111 67.25 173.161 67.25C172.111 67.25 171.294 67.5833 170.711 68.25C170.127 68.9167 169.836 69.7917 169.836 70.875V78H166.736V65Z" fill="white"/>
</svg>
